<?xml version="1.0" standalone="no"?>
<!DOCTYPE svg PUBLIC "-//W3C//DTD SVG 20010904//EN"
 "http://www.w3.org/TR/2001/REC-SVG-20010904/DTD/svg10.dtd">
<svg version="1.0" xmlns="http://www.w3.org/2000/svg"
 width="731.000000pt" height="731.000000pt" viewBox="0 0 731.000000 731.000000"
 preserveAspectRatio="xMidYMid meet">
<metadata>
Created by potrace 1.14, written by Peter Selinger 2001-2017
</metadata>
<g transform="translate(0.000000,731.000000) scale(0.100000,-0.100000)"
fill="#000000" stroke="none">
<path d="M2193 7176 c-172 -33 -337 -106 -538 -241 -188 -125 -466 -354 -509
-419 -72 -110 47 -249 165 -192 19 9 55 37 82 61 63 59 317 261 392 312 70 48
215 135 230 137 6 1 15 5 22 9 23 14 98 39 172 57 162 39 383 9 575 -80 290
-134 523 -463 690 -975 41 -128 107 -375 99 -375 -3 0 -17 8 -31 19 -30 21
-171 92 -217 109 -16 6 -47 14 -69 17 -21 3 -41 7 -45 9 -13 9 -108 17 -181
16 -203 -2 -326 -26 -442 -85 -77 -39 -161 -93 -166 -107 -7 -15 -34 -8 -75
21 -93 64 -250 128 -352 146 -118 19 -185 22 -276 11 -101 -12 -114 -15 -192
-41 -401 -131 -649 -469 -648 -885 0 -144 16 -231 67 -358 63 -155 172 -298
304 -398 66 -50 80 -59 151 -96 44 -23 45 -25 25 -73 -8 -19 -13 -35 -11 -35
3 0 0 -12 -6 -27 -6 -15 -13 -46 -17 -68 -9 -51 -9 -269 1 -315 58 -295 230
-532 487 -668 41 -22 107 -51 145 -63 39 -13 71 -24 73 -24 1 -1 -7 -37 -19
-81 -88 -338 47 -730 326 -950 105 -82 184 -124 308 -164 55 -18 67 -25 62
-39 -21 -53 -43 -192 -44 -282 -1 -112 19 -242 50 -324 74 -196 197 -355 359
-464 291 -195 635 -219 955 -67 235 112 414 322 493 577 52 169 51 364 -4 557
-5 17 -2 22 12 22 24 0 136 40 192 69 126 64 264 183 346 298 144 202 205 499
151 738 -16 70 -16 82 -3 82 109 6 271 63 393 137 67 41 87 58 175 146 80 79
115 127 167 225 31 60 86 205 78 205 -2 0 0 12 5 26 29 75 28 351 -1 406 -5
10 -8 18 -5 18 7 0 -38 129 -65 183 l-24 48 43 35 c191 159 305 362 340 604
10 71 6 240 -7 300 -7 30 -15 66 -17 80 -3 14 -21 63 -41 109 -92 215 -261
392 -468 491 -68 33 -90 40 -183 66 -154 41 -332 37 -498 -11 -91 -26 -245
-102 -274 -135 -3 -3 -18 -15 -34 -26 l-29 -21 -66 47 c-257 186 -576 228
-873 116 l-66 -24 -12 46 c-6 26 -13 55 -15 65 -8 38 -60 216 -86 290 l-26 78
81 -7 c148 -13 439 -8 532 10 10 2 42 7 69 10 135 18 359 90 506 162 247 121
497 353 603 559 25 48 33 75 29 98 -16 105 -123 157 -208 101 -14 -9 -41 -44
-61 -77 -192 -327 -555 -538 -1022 -594 -82 -9 -389 -10 -492 0 -164 15 -152
9 -200 100 -159 299 -372 523 -606 640 -67 34 -227 92 -279 101 -14 3 -33 7
-43 10 -72 23 -315 29 -409 12z m-386 -1792 c153 -15 252 -49 359 -126 l42
-30 -44 -86 c-92 -181 -129 -387 -94 -537 6 -27 14 -68 17 -90 3 -22 10 -51
15 -64 11 -30 7 -34 -67 -56 -137 -40 -308 -150 -400 -256 -27 -32 -57 -58
-65 -59 -22 0 -138 58 -185 93 -118 88 -218 237 -254 379 -21 82 -25 220 -9
290 5 24 12 54 14 67 15 76 112 233 188 305 40 37 161 116 178 116 7 0 22 6
33 13 22 15 94 35 159 44 22 3 43 7 45 9 2 2 8 1 12 -2 5 -2 30 -7 56 -10z
m1277 2 c102 -12 229 -64 320 -132 19 -13 19 -16 -17 -86 -19 -40 -44 -95 -55
-123 -24 -63 -54 -193 -47 -205 3 -5 2 -11 -3 -14 -12 -7 -7 -199 7 -273 7
-35 18 -80 25 -102 l14 -38 -71 -33 c-90 -41 -166 -90 -235 -148 l-53 -45 -27
25 c-102 94 -292 192 -413 212 -18 3 -45 8 -59 11 -13 2 -39 6 -58 7 -38 3
-43 10 -72 119 -21 81 -23 224 -4 309 65 279 296 485 579 516 28 4 51 7 52 8
3 3 48 0 117 -8z m2489 -2 c308 -64 531 -324 542 -629 6 -206 -57 -368 -201
-513 l-72 -72 -34 31 c-146 136 -384 239 -557 241 -127 2 -258 -16 -368 -50
-38 -12 -40 -10 -70 68 -67 170 -67 357 -1 514 37 87 87 158 163 233 157 152
389 221 598 177z m-1184 -18 c35 -10 86 -28 113 -41 65 -31 150 -86 146 -94
-2 -3 -19 -35 -40 -71 -33 -59 -77 -174 -92 -241 -36 -160 -27 -339 23 -497
11 -34 31 -85 45 -113 l24 -51 -25 -21 c-42 -36 -128 -122 -151 -152 l-22 -28
-22 29 c-36 48 -160 168 -208 201 -140 95 -306 151 -475 160 -60 3 -111 7
-112 8 -2 1 -12 37 -24 81 -21 80 -27 213 -14 284 50 274 245 481 516 548 91
23 227 22 318 -2z m-598 -1200 c183 -42 351 -169 434 -326 l36 -70 -17 -78
c-27 -120 -24 -328 6 -432 14 -48 15 -47 -37 -53 -173 -23 -355 -109 -489
-230 l-50 -45 -45 41 c-138 130 -345 221 -549 241 -19 2 -38 4 -43 5 -4 0 -18
25 -31 55 -22 50 -27 66 -41 136 -8 36 -8 149 -1 188 3 17 8 45 11 62 7 41 41
126 72 180 109 187 287 305 518 342 43 7 163 -1 226 -16z m-1249 -33 c91 -31
194 -92 242 -142 l27 -28 -18 -34 c-98 -177 -125 -471 -63 -671 11 -34 16 -65
12 -69 -4 -3 -41 -18 -84 -33 -140 -50 -282 -151 -381 -271 -40 -50 -57 -63
-73 -59 -11 3 -27 6 -35 8 -112 21 -237 92 -332 188 -247 251 -254 662 -14
923 142 156 311 227 522 221 90 -3 126 -9 197 -33z m2749 18 c207 -33 397
-180 493 -381 47 -98 60 -163 60 -295 -1 -156 -45 -283 -142 -403 -84 -105
-199 -186 -318 -226 -69 -23 -87 -26 -175 -31 l-76 -5 -64 74 c-112 128 -268
229 -430 277 l-79 24 -21 54 c-48 128 -57 285 -24 410 29 113 108 248 189 324
76 71 207 144 292 162 115 26 204 30 295 16z m-2122 -1226 c88 -23 184 -70
248 -122 62 -50 93 -80 93 -89 0 -3 -16 -50 -36 -103 -46 -121 -65 -230 -63
-349 2 -97 11 -160 37 -254 l10 -35 -60 -18 c-172 -51 -356 -178 -462 -317
-31 -42 -40 -42 -151 -5 -219 73 -390 264 -446 497 -17 75 -15 231 5 307 70
264 280 457 546 502 69 12 208 5 279 -14z m1346 5 c28 -7 92 -32 143 -57 186
-88 323 -268 363 -477 67 -347 -163 -700 -508 -780 l-62 -14 -25 33 c-148 194
-394 329 -655 359 -47 5 -60 31 -86 171 -64 338 163 682 503 764 87 21 242 22
327 1z m-651 -1222 c477 -132 665 -692 360 -1074 -240 -301 -678 -346 -976
-100 -36 30 -87 84 -112 119 -286 401 -81 946 399 1061 80 20 248 17 329 -6z"/>
</g>
</svg>
